<svg id="Layer_1" data-name="Layer 1" xmlns="http://www.w3.org/2000/svg" viewBox="0 0 133.65 109.09"><defs><style>.cls-1{fill:#ffca1e;}.cls-2{fill:#fff;}.cls-3{fill:#f48128;}.cls-4{fill:#f05a28;}.cls-5{fill:#ee4428;}.cls-6{fill:#fcb623;}.cls-7{fill:#f89c27;}.cls-8{fill:#231f20;}</style></defs><title>logo</title><path class="cls-1" d="M66.14,41.94A21.49,21.49,0,1,1,44.66,20.45,21.48,21.48,0,0,1,66.14,41.94" transform="translate(-23.17 -20.45)"/><path class="cls-2" d="M32.64,37.27c-.12-.49-.43-.63-.92-.63h-.54V33.47h2.43c1.43,0,2.2.34,2.51,1.66l2.77,12.08a16.83,16.83,0,0,1,.34,2.14h.06a15.8,15.8,0,0,1,.43-2.14L43.4,33.53h3.17l3.48,13.68a13.14,13.14,0,0,1,.4,2.14h.06a19.28,19.28,0,0,1,.34-2.14l2.8-12.08c.29-1.32,1.06-1.66,2.49-1.66h2.45v3.17h-.54c-.52,0-.8.14-.91.63L52.91,53.74H48.6L45.51,42.27A24.2,24.2,0,0,1,45,39.75h-.06a21.89,21.89,0,0,1-.54,2.52L41.17,53.74H36.83Z" transform="translate(-23.17 -20.45)"/><path class="cls-3" d="M66.14,88.63A21.49,21.49,0,1,1,44.66,67.14,21.48,21.48,0,0,1,66.14,88.63" transform="translate(-23.17 -20.45)"/><path class="cls-4" d="M111.48,88.63A21.48,21.48,0,1,1,90,67.14a21.48,21.48,0,0,1,21.48,21.49" transform="translate(-23.17 -20.45)"/><path class="cls-5" d="M156.83,88.63a21.49,21.49,0,1,1-21.49-21.49,21.49,21.49,0,0,1,21.49,21.49" transform="translate(-23.17 -20.45)"/><path class="cls-2" d="M36.45,83.73a.57.57,0,0,0-.63-.63H34.59V79.93h3.66c1.37,0,1.94.6,1.94,1.94v6.65h8.93V81.87c0-1.34.6-1.94,2-1.94h3.65V83.1H53.49a.57.57,0,0,0-.63.63V100.2H49.12V91.69H40.19v8.51H36.45Z" transform="translate(-23.17 -20.45)"/><path class="cls-2" d="M82,83.73a.57.57,0,0,0-.63-.63H80.18V79.93h3.66c1.36,0,1.94.6,1.94,1.94v11a4.23,4.23,0,0,0,8.45,0v-11c0-1.34.57-1.94,1.94-1.94h3.65V83.1H98.6a.57.57,0,0,0-.63.63V93c0,4.48-3.17,7.56-7.94,7.56S82,97.46,82,93Z" transform="translate(-23.17 -20.45)"/><path class="cls-2" d="M129.16,83.1h-1.85V79.93h8.76c3.66,0,6.28,1.88,6.28,5.22a4.72,4.72,0,0,1-2.45,4.34v.06a4.75,4.75,0,0,1,3.25,4.77c0,4.05-3.22,5.88-7,5.88H131.1c-1.34,0-1.94-.57-1.94-1.94Zm6.94,5.11a2.39,2.39,0,0,0,2.45-2.6A2.32,2.32,0,0,0,136,83.1H132.9v5.11ZM133.53,97h2.91a2.93,2.93,0,0,0,0-5.85H132.9V96.4a.57.57,0,0,0,.63.63" transform="translate(-23.17 -20.45)"/><path class="cls-6" d="M111.48,41.94A21.48,21.48,0,1,1,90,20.45a21.48,21.48,0,0,1,21.48,21.49" transform="translate(-23.17 -20.45)"/><path class="cls-2" d="M84.58,36.64H82.72V33.47H95c1.34,0,1.94.6,1.94,1.94V38.5h-3.4V37.27a.57.57,0,0,0-.62-.63H88.32V42h6.56v3.17H88.32V50a.57.57,0,0,0,.63.63h4.68a.57.57,0,0,0,.63-.63V48.72h3.39V51.8c0,1.37-.6,1.94-1.94,1.94H86.52c-1.37,0-1.94-.57-1.94-1.94Z" transform="translate(-23.17 -20.45)"/><path class="cls-7" d="M156.83,41.94a21.49,21.49,0,1,1-21.49-21.49,21.49,21.49,0,0,1,21.49,21.49" transform="translate(-23.17 -20.45)"/><polygon class="cls-2" points="104.4 26.58 96.75 21.48 104.4 16.39 104.4 18.24 107.63 18.24 107.63 19.54 103.1 19.54 103.1 18.81 99.09 21.48 103.1 24.16 103.1 23.43 107.63 23.43 107.63 24.72 104.4 24.72 104.4 26.58"/><polygon class="cls-2" points="119.94 26.58 119.94 24.72 116.7 24.72 116.7 23.43 121.24 23.43 121.24 24.16 125.25 21.48 121.24 18.81 121.24 19.54 116.7 19.54 116.7 18.24 119.94 18.24 119.94 16.39 127.58 21.48 119.94 26.58"/><polygon class="cls-2" points="115.41 16.95 114.11 16.95 114.11 12.41 114.84 12.41 112.17 8.4 109.49 12.41 110.23 12.41 110.23 16.95 108.93 16.95 108.93 13.71 107.07 13.71 112.17 6.07 117.27 13.71 115.41 13.71 115.41 16.95"/><polygon class="cls-2" points="112.17 36.9 107.07 29.26 108.93 29.26 108.93 26.02 110.23 26.02 110.23 30.55 109.49 30.55 112.17 34.57 114.84 30.55 114.11 30.55 114.11 26.02 115.41 26.02 115.41 29.26 117.27 29.26 112.17 36.9"/><rect class="cls-2" x="127.57" y="32.07" width="1.29" height="5.5" transform="translate(-10.23 80.41) rotate(-45)"/><rect class="cls-2" x="139.72" y="34.17" width="5.5" height="1.3" transform="translate(-6.06 90.48) rotate(-45)"/><rect class="cls-2" x="125.47" y="48.42" width="5.5" height="1.3" transform="translate(-20.31 84.57) rotate(-45)"/><rect class="cls-2" x="141.82" y="46.32" width="1.3" height="5.5" transform="translate(-16.14 94.66) rotate(-45)"/><polygon class="cls-2" points="103.75 15.01 102.45 15.01 102.45 11.77 105.69 11.77 105.69 13.06 103.75 13.06 103.75 15.01"/><polygon class="cls-2" points="121.88 15.01 120.59 15.01 120.59 13.06 118.65 13.06 118.65 11.77 121.88 11.77 121.88 15.01"/><polygon class="cls-2" points="105.69 31.2 102.45 31.2 102.45 27.96 103.75 27.96 103.75 29.9 105.69 29.9 105.69 31.2"/><polygon class="cls-2" points="121.88 31.2 118.65 31.2 118.65 29.9 120.59 29.9 120.59 27.96 121.88 27.96 121.88 31.2"/><path class="cls-2" d="M135.34,48.09a6.16,6.16,0,1,1,6.16-6.15,6.16,6.16,0,0,1-6.16,6.15m0-11a4.86,4.86,0,1,0,4.86,4.86,4.87,4.87,0,0,0-4.86-4.86" transform="translate(-23.17 -20.45)"/><rect class="cls-8" x="4.79" y="100.54" width="0.93" height="6.67"/><path class="cls-8" d="M32.84,122.77a1.6,1.6,0,0,1,1.48.75h0a2.52,2.52,0,0,1,0-.32V121h.91v6.67h-.87v-.46c0-.18,0-.32,0-.32h0a1.68,1.68,0,0,1-1.57.89c-1.3,0-2.11-1-2.11-2.5a2.23,2.23,0,0,1,2.16-2.5M33,127c.71,0,1.38-.5,1.38-1.72,0-.85-.45-1.7-1.35-1.7s-1.38.62-1.38,1.71S32.17,127,33,127" transform="translate(-23.17 -20.45)"/><path class="cls-8" d="M39.2,122.77A2,2,0,0,1,41.27,125c0,.13,0,.4,0,.4H37.76A1.56,1.56,0,0,0,39.4,127a2.25,2.25,0,0,0,1.41-.56l.38.67a2.85,2.85,0,0,1-1.85.68,2.43,2.43,0,0,1-2.53-2.5,2.34,2.34,0,0,1,2.39-2.5m1.13,1.94a1.13,1.13,0,0,0-1.15-1.22,1.38,1.38,0,0,0-1.4,1.22Z" transform="translate(-23.17 -20.45)"/><path class="cls-8" d="M45.35,124.67h.21v-.08a.93.93,0,0,0-1.05-1,2.41,2.41,0,0,0-1.33.46l-.38-.67a3,3,0,0,1,1.78-.56,1.7,1.7,0,0,1,1.89,1.87v3h-.85v-.46a3.31,3.31,0,0,1,0-.37h0a1.66,1.66,0,0,1-1.53.94,1.49,1.49,0,0,1-1.62-1.45c0-1.58,2.08-1.65,2.88-1.65M44.29,127a1.45,1.45,0,0,0,1.27-1.52v-.15h-.23c-.69,0-1.94,0-1.94.91a.8.8,0,0,0,.9.76" transform="translate(-23.17 -20.45)"/><path class="cls-8" d="M48.48,123.68h-.62V123h.65v-1.38h.89V123h1.15v.73H49.4v2.13a1,1,0,0,0,1,1.07,1.12,1.12,0,0,0,.22,0v.82a2.59,2.59,0,0,1-.33,0,1.65,1.65,0,0,1-1.83-1.79Z" transform="translate(-23.17 -20.45)"/><path class="cls-8" d="M54.2,122.77A2,2,0,0,1,56.26,125c0,.13,0,.4,0,.4H52.75A1.56,1.56,0,0,0,54.39,127a2.26,2.26,0,0,0,1.42-.56l.38.67a2.85,2.85,0,0,1-1.85.68,2.43,2.43,0,0,1-2.53-2.5,2.34,2.34,0,0,1,2.39-2.5m1.13,1.94a1.13,1.13,0,0,0-1.15-1.22,1.37,1.37,0,0,0-1.4,1.22Z" transform="translate(-23.17 -20.45)"/><rect class="cls-8" x="34.68" y="106.23" width="0.96" height="0.97"/><rect class="cls-8" x="40.64" y="100.54" width="0.93" height="6.67"/><path class="cls-8" d="M66.84,122.88h.89v.63a3.16,3.16,0,0,1,0,.35h0a1.86,1.86,0,0,1,1.64-1.09,1.31,1.31,0,0,1,1.44,1.08h0a1.92,1.92,0,0,1,1.7-1.08c1.07,0,1.57.61,1.57,1.83v3.06h-.91V124.8c0-.67-.14-1.2-.85-1.2A1.48,1.48,0,0,0,71,124.81a2.76,2.76,0,0,0-.07.67v2.18H70V124.8c0-.63-.09-1.2-.83-1.2a1.51,1.51,0,0,0-1.37,1.25,3.16,3.16,0,0,0,0,.63v2.18h-.92Z" transform="translate(-23.17 -20.45)"/><path class="cls-8" d="M76,122.88h.84v.41a2.86,2.86,0,0,1,0,.34h0a1.72,1.72,0,0,1,1.6-.86c1.29,0,2.1,1,2.1,2.5a2.24,2.24,0,0,1-2.17,2.5,1.67,1.67,0,0,1-1.46-.78h0a3.89,3.89,0,0,1,0,.41v2.15H76ZM78.18,127c.76,0,1.38-.63,1.38-1.71s-.56-1.71-1.35-1.71-1.38.5-1.38,1.72a1.52,1.52,0,0,0,1.35,1.7" transform="translate(-23.17 -20.45)"/><path class="cls-8" d="M82,121h.91v5.2c0,.58.23.68.51.68h.16v.82a2.39,2.39,0,0,1-.3,0c-.52,0-1.28-.15-1.28-1.35Z" transform="translate(-23.17 -20.45)"/><path class="cls-8" d="M87.12,122.77A2,2,0,0,1,89.18,125c0,.13,0,.4,0,.4H85.67A1.57,1.57,0,0,0,87.32,127a2.25,2.25,0,0,0,1.41-.56l.38.67a2.85,2.85,0,0,1-1.85.68,2.43,2.43,0,0,1-2.53-2.5,2.34,2.34,0,0,1,2.39-2.5m1.13,1.94a1.13,1.13,0,0,0-1.15-1.22,1.37,1.37,0,0,0-1.4,1.22Z" transform="translate(-23.17 -20.45)"/><path class="cls-8" d="M90.77,122.88h.89v.63a3.16,3.16,0,0,1,0,.35h0a1.86,1.86,0,0,1,1.64-1.09,1.31,1.31,0,0,1,1.44,1.08h0a1.92,1.92,0,0,1,1.7-1.08c1.07,0,1.57.61,1.57,1.83v3.06h-.91V124.8c0-.67-.14-1.2-.85-1.2a1.48,1.48,0,0,0-1.34,1.21,2.76,2.76,0,0,0-.07.67v2.18h-.92V124.8c0-.63-.09-1.2-.83-1.2a1.51,1.51,0,0,0-1.37,1.25,3.16,3.16,0,0,0,0,.63v2.18h-.92Z" transform="translate(-23.17 -20.45)"/><path class="cls-8" d="M101.93,122.77A2,2,0,0,1,104,125c0,.13,0,.4,0,.4h-3.48a1.56,1.56,0,0,0,1.64,1.58,2.29,2.29,0,0,0,1.42-.56l.38.67a2.85,2.85,0,0,1-1.85.68,2.42,2.42,0,0,1-2.53-2.5,2.33,2.33,0,0,1,2.38-2.5m1.14,1.94a1.13,1.13,0,0,0-1.15-1.22,1.37,1.37,0,0,0-1.4,1.22Z" transform="translate(-23.17 -20.45)"/><path class="cls-8" d="M105.59,122.88h.89v.63a3.16,3.16,0,0,1,0,.35h0a1.94,1.94,0,0,1,1.79-1.09c1.12,0,1.64.61,1.64,1.83v3.06H109v-2.85c0-.67-.14-1.2-.91-1.2a1.56,1.56,0,0,0-1.51,1.17,2.13,2.13,0,0,0-.07.64v2.24h-.92Z" transform="translate(-23.17 -20.45)"/><path class="cls-8" d="M112,123.68h-.62V123H112v-1.38h.89V123H114v.73h-1.15v2.13a1,1,0,0,0,1,1.07,1.12,1.12,0,0,0,.22,0v.82a2.52,2.52,0,0,1-.32,0,1.65,1.65,0,0,1-1.84-1.79Z" transform="translate(-23.17 -20.45)"/><rect class="cls-8" x="92.44" y="106.23" width="0.96" height="0.97"/><rect class="cls-8" x="98.39" y="100.54" width="0.93" height="6.67"/><path class="cls-8" d="M124.6,122.88h.89v.63a3.16,3.16,0,0,1,0,.35h0a1.94,1.94,0,0,1,1.79-1.09c1.12,0,1.64.61,1.64,1.83v3.06H128v-2.85c0-.67-.14-1.2-.91-1.2a1.57,1.57,0,0,0-1.51,1.17,2.13,2.13,0,0,0-.07.64v2.24h-.92Z" transform="translate(-23.17 -20.45)"/><path class="cls-8" d="M130.82,126.42a2.05,2.05,0,0,0,1.37.56c.4,0,.79-.21.79-.6,0-.87-2.45-.7-2.45-2.25,0-.87.77-1.36,1.73-1.36a2.14,2.14,0,0,1,1.54.53l-.37.69a1.75,1.75,0,0,0-1.18-.43c-.4,0-.79.17-.79.58,0,.86,2.46.67,2.46,2.24,0,.8-.68,1.39-1.73,1.39a2.56,2.56,0,0,1-1.81-.7Z" transform="translate(-23.17 -20.45)"/><path class="cls-8" d="M135.47,122.88h.84v.41a2.86,2.86,0,0,1,0,.34h0a1.74,1.74,0,0,1,1.61-.86c1.28,0,2.09,1,2.09,2.5a2.23,2.23,0,0,1-2.16,2.5,1.65,1.65,0,0,1-1.46-.78h0a3.89,3.89,0,0,1,0,.41v2.15h-.92Zm2.24,4.11c.75,0,1.38-.63,1.38-1.71s-.56-1.71-1.35-1.71-1.38.5-1.38,1.72c0,.85.47,1.7,1.35,1.7" transform="translate(-23.17 -20.45)"/><path class="cls-8" d="M141.6,121h.92v.94h-.92Zm0,1.89h.91v4.78h-.91Z" transform="translate(-23.17 -20.45)"/><path class="cls-8" d="M144.43,122.88h.89v.83a3.24,3.24,0,0,1,0,.36h0a1.63,1.63,0,0,1,1.51-1.25,1.67,1.67,0,0,1,.24,0v.91a1.36,1.36,0,0,0-.27,0,1.46,1.46,0,0,0-1.34,1.12,3.12,3.12,0,0,0-.11.86v2h-.92Z" transform="translate(-23.17 -20.45)"/><path class="cls-8" d="M150.48,122.77a2,2,0,0,1,2.06,2.23c0,.13,0,.4,0,.4H149a1.56,1.56,0,0,0,1.64,1.58,2.29,2.29,0,0,0,1.42-.56l.38.67a2.85,2.85,0,0,1-1.85.68,2.43,2.43,0,0,1-2.53-2.5,2.34,2.34,0,0,1,2.39-2.5m1.13,1.94a1.13,1.13,0,0,0-1.15-1.22,1.37,1.37,0,0,0-1.4,1.22Z" transform="translate(-23.17 -20.45)"/></svg>